# xmcd CD database file
#
# Track frame offsets:
#	150
#	16248
#	37726
#	59590
#	75679
#	93603
#	113014
#	126867
#	143070
#	163409
#	181776
#	201436
#	221197
#
# Disc length: 3160 seconds
#
# Revision: 0
# Processed by: cddbd v1.5.2PL0 Copyright (c) Steve Scherf et al.
# Submitted via: CDex 1.75
#
DISCID=b80c560d
DTITLE=Jovan Maljokovic - Indiskretno ogledalo
DYEAR=2009
DGENRE=Jazz
TTITLE0=Indiskretno ogledalo
TTITLE1=Ljubav
TTITLE2=Kad ne pogledas
TTITLE3=Vreme neznosti
TTITLE4=Kazi zasto me ostavi
TTITLE5=Carolija
TTITLE6=Panika
TTITLE7=Luka koju trazim
TTITLE8=Zlatne suze
TTITLE9=Na raskrscu
TTITLE10=Tajna
TTITLE11=Tres palabras
TTITLE12=Indiskretno ogledalo (instr)
EXTD=YEAR: 2009
EXTT0=
EXTT1=
EXTT2=
EXTT3=
EXTT4=
EXTT5=
EXTT6=
EXTT7=
EXTT8=
EXTT9=
EXTT10=
EXTT11=
EXTT12=
PLAYORDER=
